Unforgiven 1992 BluRay ac3 x264-LoNeWoLf

Encoded by Tequila-Bob a.k.a. bobnjeff a.k.a.LoNeWoLf

Source - NTSC BluRay Disc.

Movie has been tested and is DXVA Compliant
 
http://www.imdb.com/title/tt0105695/

Genres:Drama, Western

Rated R for language, and violence, and for a scene of sexuality

Unforgiven (1992) 
  131 min  -  Drama | Western   -  7 August 1992 (USA) 
  8.3/10 X  Users: 8.3/10 (103,351 votes) 396 reviews | Critics: 88 reviews 
  Retired Old West gunslinger William Munny reluctantly takes on one last job, with the help of his old partner and a young man. 

Director: Clint Eastwood
Writer: David Webb Peoples
Stars:Clint Eastwood, Gene Hackman, Morgan Freeman

Storyline
The town of Big Whisky is full of normal people trying to lead quiet lives. Cowboys try to make a living. Sheriff 'Little Bill' tries to build a house and keep a heavy-handed order. The town whores just try to get by.Then a couple of cowboys cut up a whore. Unsatisfied with Bill's justice, the prostitutes put a bounty on the cowboys. The bounty attracts a young gun billing himself as 'The Schofield Kid', and aging killer William Munny. Munny reformed for his young wife, and has been raising crops and two children in peace. But his wife is gone. Farm life is hard. And Munny is no good at it. So he calls his old partner Ned, saddles his ornery nag, and rides off to kill one more time, blurring the lines between heroism and villainy, man and myth. 


Cast
Cast overview, first billed only: 
  Clint Eastwood  ...  Bill Munny  
  Gene Hackman  ...  Little Bill Daggett  
  Morgan Freeman  ...  Ned Logan  
  Richard Harris  ...  English Bob  
  Jaimz Woolvett  ...  The 'Schofield Kid'  
  Saul Rubinek  ...  W.W. Beauchamp  
  Frances Fisher  ...  Strawberry Alice  
  Anna Levine  ...  Delilah Fitzgerald (as Anna Thomson)  
  David Mucci  ...  Quick Mike  
  Rob Campbell  ...  Davey Bunting  
  Anthony James  ...  Skinny Dubois  
  Tara Frederick  ...  Little Sue (as Tara Dawn Frederick)  
  Beverley Elliott  ...  Silky  
  Liisa Repo-Martell  ...  Faith  
  Josie Smith  ...  Crow Creek Kate  



Format : Matroska 
File size : 8.00 GiB 
Duration : 2h 10mn 
Overall bit rate : 8 765 Kbps 
Encoded date : UTC 2010-12-23 02:18:45 
Writing application : mkvmerge v4.4.0 ('Die Wiederkehr') built on Oct 31 2010 21:52:48 
Writing library : libebml v1.0.0 + libmatroska v1.0.0 

Video 
ID : 1 
Format : AVC 
Format/Info : Advanced Video Codec 
Format profile : High@L4.1 
Format settings, CABAC : Yes 
Format settings, ReFrames : 3 frames 
Muxing mode : Container profile=Unknown@4.1 
Codec ID : V_MPEG4/ISO/AVC 
Duration : 2h 10mn 
Bit rate : 8 070 Kbps 
Width : 1 920 pixels 
Height : 816 pixels 
Display aspect ratio : 2.35:1 
Frame rate : 23.976 fps 
Color space : YUV 
Chroma subsampling : 4:2:0 
Bit depth : 8 bits 
Scan type : Progressive 
Bits/(Pixel*Frame) : 0.215 
Stream size : 7.26 GiB (91%) 
Writing library : x264 core 98 r1649 c54c47d 
Encoding settings : cabac=1 / ref=4 / deblock=1:-3:-3 / analyse=0x3:0x113 / me=umh / subme=9 / psy=1 / psy_rd=1.00:0.15 / mixed_ref=1 / me_range=32 / chroma_me=1 / trellis=2 / 8x8dct=1 / cqm=0 / deadzone=21,11 / fast_pskip=0 / chroma_qp_offset=-3 / threads=6 / sliced_threads=0 / nr=0 / decimate=1 / interlaced=0 / constrained_intra=0 / bframes=3 / b_pyramid=1 / b_adapt=2 / b_bias=0 / direct=1 / weightb=1 / weightp=2 / keyint=250 / keyint_min=25 / scenecut=40 / intra_refresh=0 / rc_lookahead=60 / rc=2pass / mbtree=1 / bitrate=8070 / ratetol=1.0 / qcomp=0.60 / qpmin=10 / qpmax=51 / qpstep=4 / cplxblur=20.0 / qblur=0.5 / vbv_maxrate=50000 / vbv_bufsize=50000 / ip_ratio=1.40 / aq=1:1.50 / nal_hrd=none 
Language : English 

Audio 
ID : 2 
Format : AC-3 
Format/Info : Audio Coding 3 
Mode extension : CM (complete main) 
Codec ID : A_AC3 
Duration : 2h 10mn 
Bit rate mode : Constant 
Bit rate : 640 Kbps 
Channel(s) : 6 channels 
Channel positions : Front: L C R, Side: L R, LFE 
Sampling rate : 48.0 KHz 
Bit depth : 16 bits 
Stream size : 598 MiB (7%) 
Title : 3/2+1 
Language : English 

Text #1 
ID : 3 
Format : PGS 
Codec ID : S_HDMV/PGS 
Codec ID/Info : The same subtitle format used on BDs/HD-DVDs 
Language : English 
Text #2  
Language : English 
Text #3 
Language : French 
Text #4  
Language : Spanish 

Menu & 32 Chapters






See the full size 1920x816 PNG files at the link below
 
http://s1015.photobucket.com/albums/af279/tequila-bob/Unforgiven1992/
